<?xml version="1.0" encoding="UTF-8" standalone="no"?><!DOCTYPE svg PUBLIC "-//W3C//DTD SVG 1.1//EN" "http://www.w3.org/Graphics/SVG/1.1/DTD/svg11.dtd"><svg width="100%" height="100%" viewBox="0 0 3025 2980" version="1.1" xmlns="http://www.w3.org/2000/svg" xmlns:xlink="http://www.w3.org/1999/xlink" xml:space="preserve" xmlns:serif="http://www.serif.com/" style="fill-rule:evenodd;clip-rule:evenodd;stroke-linejoin:round;stroke-miterlimit:2;"><clipPath id="_clip1"><rect id="light-bulb-svgrepo-com" x="0.943" y="1.484" width="3023.76" height="2975.84"/></clipPath><g clip-path="url(#_clip1)"><g><path d="M1919.1,1787.97c-39.358,37.186 -137.922,107.71 -240.795,173.285c-149.632,95.381 -151.985,106.698 -316.246,182.494c-134.328,61.984 -289.52,83.402 -436.387,84.149c-522.39,2.66 -924.725,-459.003 -924.725,-957.904c0,-498.918 402.339,-960.546 924.731,-957.905c287.881,1.456 517.754,108.087 752.766,266.313c103.689,69.811 240.285,173.966 290.845,234.676c32.666,39.223 14.637,44.59 -20.729,54.411c-61.381,17.046 -201.9,-98.204 -324.438,-179.115c-199.785,-131.917 -450.324,-247.92 -699.011,-235.436c-116.56,5.852 -198.709,22.076 -305.713,71.558c-316.35,146.293 -484.715,457.2 -478.073,796.509c9.028,461.246 426.448,824.035 892.183,774.084c216.785,-23.251 401.159,-113.727 580.917,-226.627c83.205,-52.259 182.03,-108.607 232.034,-130.328c20.734,-9.007 55.885,-8.306 67.992,-0c12.106,8.306 16.876,38.283 4.649,49.836Z" style="fill-rule:nonzero;"/><g><path d="M1833.48,1499.6c10.035,-3.95 18.397,-5.925 25.087,-5.925c10.704,-0 51.54,28.022 56.892,35.922c5.352,7.901 -24.78,-5.965 -24.78,6.544c-0,19.751 46.239,29.451 36.538,43.277c-9.7,13.826 0.925,9.987 -22.49,21.18c-39.47,18.435 -168.919,56.521 -231.804,67.385c-62.885,10.863 -124.766,16.295 -185.644,16.295c-84.292,-0 -154.87,-9.382 -211.734,-28.146c-56.864,-18.764 -99.178,-44.606 -126.941,-77.525c-27.763,-32.92 -41.644,-70.118 -41.644,-111.597c-0,-56.621 18.564,-104.848 55.693,-144.68c37.129,-39.833 91.819,-68.637 164.069,-86.413c-39.47,-11.193 -69.742,-30.945 -90.815,-59.255c-21.073,-28.311 -31.609,-94.808 -31.609,-94.808c-0,-47.404 15.219,-89.376 45.658,-125.916c30.439,-36.541 71.414,-64.687 122.926,-84.438c51.512,-19.752 108.042,-29.628 169.589,-29.628c82.954,0 145.17,17.612 186.647,52.836c41.477,35.224 62.216,80.817 62.216,136.78c0,38.844 -7.693,72.587 -21.575,94.314c-12.733,19.93 -44.069,32.096 -61.714,36.046c-14.919,3.34 -34.118,-4.115 -44.153,-12.345c-10.035,-8.229 -14.216,-24.771 -16.056,-37.034c-1.824,-12.159 1.673,-23.373 5.018,-36.54c3.345,-21.727 5.017,-36.541 5.017,-44.441c0,-23.702 -9.031,-42.96 -27.094,-57.774c-18.063,-14.813 -48.167,-22.22 -90.313,-22.22c-56.864,-0 -102.355,11.851 -136.474,35.553c-34.118,23.701 -51.177,55.633 -51.177,95.795c-0,30.944 12.878,56.456 38.634,76.537c25.756,20.081 99.763,25.924 125.937,33.084c10.497,2.872 24.418,3.292 31.108,9.876c6.689,6.584 13.906,20.501 9.031,29.627c-8.53,15.966 -32.833,53.891 -60.209,66.168c-33.031,14.814 -101.519,8.888 -137.979,22.714c-36.459,13.827 -62.884,31.438 -79.275,52.836c-16.39,21.398 -24.585,44.277 -24.585,68.637c0,40.82 19.401,71.599 58.202,92.338c38.801,20.74 100.348,31.109 184.641,31.109c55.526,0 114.229,-6.419 176.111,-19.258c61.881,-12.838 114.898,-28.475 159.051,-46.91Z" style="fill-rule:nonzero;"/><path d="M2147.57,1537.47c0.144,5.936 5.448,36.138 8.218,47.326c1.721,6.949 3.36,16.345 8.405,19.798c5.045,3.453 15.891,4.755 21.865,0.919c5.975,-3.836 9.784,-13.654 13.982,-23.934c10.746,-26.315 19.285,-60.539 26.911,-99.231c25.544,-129.595 39.187,-304.816 63.492,-426.335c15.157,-75.781 37.779,-133.295 63.11,-160.098c24.369,-25.787 52.722,-35.495 83.361,-31.966c23.348,2.689 45.634,13.98 64.026,37.343c13.305,16.902 25.626,43.513 34.596,78.425c25.088,97.643 30.736,278.722 41.953,431.076c3.327,45.18 7.148,87.637 12.423,123.939c20.651,-91.046 31.777,-220.376 45.63,-332.839c12.663,-102.804 29.198,-192.663 52.589,-237.119c23.692,-45.03 57.978,-61.381 90.72,-60.42c37.761,1.109 81.065,31.34 101.756,102.501c21.323,73.337 29.442,203.826 36.73,331.854c6.604,116.023 11.931,229.874 31.372,287.083c11.143,32.792 -6.861,68.319 -40.181,79.285c-33.32,10.967 -69.419,-6.752 -80.562,-39.544c-34.307,-100.956 -32.92,-365.067 -53.852,-536.123c-9.184,56.264 -16.455,123.038 -24.104,190.072c-14.749,129.267 -32.048,259.189 -62.235,327.698c-24.251,55.038 -61.488,80.564 -97.602,83.888c-35.759,3.292 -72.049,-12.891 -95.81,-61.381c-22.467,-45.849 -35.828,-140.781 -43.857,-249.838c-9.123,-123.91 -13.699,-267.674 -29.599,-365.727c-7.946,33.975 -14.568,74.201 -20.828,117.392c-20.988,144.796 -37.186,320.255 -70.447,424.902c-20.768,65.339 -53.106,107.336 -85.993,123.064c-48.392,23.143 -87.004,22.065 -117.299,11.242c-31.788,-11.356 -58.865,-38.135 -74.695,-67.537c-18.538,-34.433 -42.005,-141.639 -36.535,-139.058c-20.738,50.999 -56.529,76.498 -107.372,76.498c-38.132,0 -69.073,-13.343 -92.822,-40.028c-23.749,-26.685 -35.624,-61.673 -35.624,-104.962c0,-47.441 12.377,-92.361 37.129,-134.761c24.753,-42.401 57.7,-76.498 98.843,-102.294c41.143,-25.796 84.794,-38.694 130.954,-38.694c14.718,-0 24.586,2.52 29.603,7.561c5.017,5.04 9.199,14.084 12.544,27.13c12.71,-2.372 26.759,-3.558 42.146,-3.558c16.055,-0 28.432,3.558 37.129,10.674c8.696,7.116 13.045,17.197 13.045,30.243c-0,13.64 -3.345,37.36 -10.035,71.161c-7.359,36.174 -13.045,70.717 -17.059,103.628c-4.014,32.912 -6.397,95.283 -6.021,110.745Zm-200.696,-26.686c18.731,0 35.791,-11.563 51.177,-34.691c15.387,-23.127 29.101,-64.341 41.143,-123.642l19.066,-89.84c-27.428,0.593 -52.85,9.932 -76.264,28.019c-23.415,18.087 -42.147,41.955 -56.195,71.606c-14.049,29.65 -21.074,61.08 -21.074,94.288c0,17.79 3.847,31.281 11.541,40.473c7.693,9.192 17.895,13.787 30.606,13.787Z" style="fill-rule:nonzero;"/></g></g></g></svg>